<svg height='300px' width='300px'  fill="#000000" xmlns="http://www.w3.org/2000/svg" xmlns:xlink="http://www.w3.org/1999/xlink" version="1.1" x="0px" y="0px" viewBox="0 0 100 100" enable-background="new 0 0 100 100" xml:space="preserve"><g><g><path d="M51.866,80.493c-0.734,0-2.848-0.951-6.283-2.836l-0.018,0.084c-0.113,0.539-0.65,0.879-1.152,0.895l-3.434-0.156    c-0.277-0.014-0.539-0.125-0.734-0.318L39.261,77.2l-5.234-1.893c-0.141-0.051-0.273-0.129-0.383-0.229L31.69,73.28    c-0.23-0.215-0.363-0.516-0.363-0.832c0-0.312,0.135-0.615,0.367-0.828l1.578-1.441l1.213-4.803l0.443-7.232    c0.016-0.309,0.16-0.586,0.387-0.783l-0.105-0.107c-0.242-0.244-0.355-0.586-0.314-0.926l0.373-3.01    c-0.551-0.229-1.334-0.584-2.469-1.137c-0.201-0.1-0.367-0.258-0.48-0.455l-1.244-2.18c-0.229-0.398-0.189-0.895,0.094-1.256    l0.58-0.729l-0.332-0.688l-1.016-0.129c-0.305-0.039-0.582-0.201-0.766-0.449c-0.18-0.25-0.254-0.562-0.199-0.865l0.104-0.564    l-0.248-0.244l-0.75,0.232c-0.408,0.117-0.848,0.008-1.141-0.293l-1.238-1.287l-2.551-0.959l-0.145,0.127    c-0.266,0.223-0.617,0.311-0.957,0.246c-0.34-0.068-0.629-0.291-0.781-0.598l-0.516-1.031l-0.34-0.127    c-0.473-0.172-0.77-0.637-0.732-1.139c0.033-0.434,0.311-0.803,0.703-0.961c-0.014-0.047-0.025-0.096-0.033-0.146    c-0.412-0.117-0.74-0.465-0.809-0.92l-0.189-1.283c-0.082-0.559,0.264-1.096,0.811-1.248l3.535-0.984    c0.33-0.088,0.68-0.029,0.953,0.166l0.631,0.453l2.299-0.941c0.5-0.203,1.088-0.018,1.379,0.445l0.893,1.418l0.783-0.43    c0.178-0.098,0.371-0.129,0.576-0.139l2.391,0.076c0.076-0.938,0.166-1.988,0.211-2.477l-1.193-2.863    c-0.143-0.35-0.102-0.75,0.113-1.064c0.207-0.307,0.555-0.492,0.928-0.492c0.006,0,0.014,0,0.023,0l2.533,0.049    c0.469,0.01,0.883,0.312,1.039,0.754l0.564,1.605l2.719,0.895l0.82-0.385c-0.012-0.029-0.021-0.059-0.025-0.092    c-0.09-0.344-0.008-0.711,0.219-0.988l1.625-1.98c0.127-0.152,0.293-0.27,0.479-0.34l3.961-1.496l0.504-1.008l-0.268-3.391    c-0.043-0.527,0.285-1.018,0.793-1.172l4.209-1.301c0.492-0.148,1.043,0.059,1.307,0.512l0.695,1.207    c0.436-0.111,0.934,0.053,1.207,0.451l0.938,1.361l1.385,0.465c0.436,0.145,0.74,0.543,0.764,1.004l0.008,0.07l1.277,0.123    c0.609,0.057,1.057,0.588,1.016,1.195l-0.055,0.797l0.541-0.596c0.264-0.283,0.656-0.414,1.033-0.348l0.734,0.135    c0.547,0.104,0.939,0.586,0.922,1.143l-0.035,1.156l1.477,1.109l1.84,0.137l3.242,0.43c0.352,0.047,0.664,0.262,0.836,0.572    l0.711,1.283l2.293-0.287c0.191-0.025,0.391,0.002,0.576,0.08l3.205,1.344c0.309,0.129,0.543,0.391,0.639,0.709    c0.1,0.318,0.049,0.666-0.135,0.943l-1.508,2.309l-0.41,6.629c-0.012,0.227-0.094,0.441-0.234,0.619l-0.859,1.107    c-0.287,0.371-0.777,0.521-1.219,0.387l-0.082-0.027c-0.027,0.115-0.074,0.221-0.135,0.32l-3.346,5.379l1.33-0.709    c0.295-0.154,0.635-0.174,0.947-0.053c0.307,0.123,0.543,0.375,0.648,0.688l0.996,2.986c0.137,0.404,0.031,0.854-0.27,1.154    l-0.48,0.477l1.469,1.312c0.41,0.367,0.496,0.973,0.203,1.438l-1.309,2.076c-0.094,0.152-0.223,0.279-0.375,0.369l0.578,0.246    c0.264,0.111,0.473,0.32,0.586,0.58l0.289,0.656c0.127,0.281,0.129,0.6,0.012,0.889l-0.598,1.432l0.338,0.609l1.049,0.236    l1.164-0.365c0.309-0.1,0.641-0.061,0.916,0.107c0.279,0.164,0.469,0.441,0.527,0.758l0.213,1.139    c0.07,0.375-0.051,0.756-0.324,1.02l-3.801,3.643l-1.197,2.098c-0.162,0.281-0.436,0.48-0.756,0.543l-3.158,0.633    c-0.186,0.039-0.389,0.021-0.576-0.037L66.3,73.839c-0.164-0.055-0.314-0.145-0.441-0.27l-0.277-0.281l-0.258,0.221    c-0.441,0.373-1.09,0.352-1.506-0.047l-0.434-0.416c-0.287,0.117-0.611,0.121-0.904-0.008l-1.031-0.467l-3.877,2.389v3.621    c0,0.529-0.369,0.986-0.889,1.098C55.544,79.925,52.796,80.493,51.866,80.493z"></path></g></g></svg>